#define max_toggled_width 10
#define max_toggled_height 10
static unsigned char max_toggled_bits[] = {
   0x00, 0x01, 0xa0, 0x03, 0xe0, 0x01, 0xe0, 0x00, 0xe0, 0x01, 0x1e, 0x00,
   0x1c, 0x00, 0x1e, 0x00, 0x17, 0x00, 0x02, 0x00 };
